<svg xmlns="http://www.w3.org/2000/svg" preserveAspectRatio="xMinYMid" viewBox="0 0 280 56" height="30" role="img" class="sc-bxivhb iUNgUh">
    <title>BNP Paribas</title>
    <g>
        <linearGradient id="background" x1="0" x2="0" y1="0" y2="100%">
            <stop offset="0" stop-color="#00774a"></stop>
            <stop offset=".6" stop-color="#8ccaae"></stop>
            <stop offset="1" stop-color="#00975f"></stop>
        </linearGradient>
        <path fill="url(#background)" d="M0 0h56.1v56.1H0V0z"></path>
        <linearGradient id="front" x1="0" x2="0" y1="-25%" y2="100%">
            <stop offset="0" stop-color="#00975f"></stop>
            <stop offset=".3" stop-color="#8ccaae"></stop>
            <stop offset=".55" stop-color="#00975f"></stop>
            <stop offset=".84" stop-color="#00774a"></stop>
            <stop offset="1" stop-color="#00a070"></stop>
        </linearGradient>
        <path fill="url(#front)" d="M54.4 28.4c0 11.7.5 23.7.5 23.7 0 1.3-.9 2.2-2 2.2H4.4c-1.1 0-1.8-1-2-2.2 0 0-1.4-10.2-1.4-25.9 0-15.6 1.4-23 1.4-23 .2-1.3.9-2.2 2-2.2H53c1.1 0 2 1 2 2.2 0 0-.6 13.5-.6 25.2z"></path>
        <linearGradient id="starEmboss" x1="0" x2="100%" y1="0" y2="0">
            <stop offset="0" stop-color="#00a97c"></stop>
            <stop offset="1" stop-color="#00975f"></stop>
        </linearGradient>
        <g fill="url(#starEmboss)">
            <path d="M43.6 15.2c-3.5 2-4.5 2.2-8.3 4.5l.2-.4c2-2.2 2.8-3.1 4.1-5-3.5.2-8.5.6-12.1 1.4l.2-.4c3.3-1.6 9.4-3.2 12.4-3.6-.8-1.1-6.9-4.4-8.4-5l.2-.4c4.7.5 10.8 2.7 13.5 4.4 1.1-.4 2.3-.4 4.4-.6 0 0-.3 1.3-2.6 2.9.6 1.5-.8 10-1.9 12.2-.1-3.6-.4-8.1-1.7-10z"></path>
            <path d="M18.3 45.5l.2-.4c-1.8-.7-3.7-1.3-5.2-2.7.5-1.3 1-2.3 1.9-3.6l.2-.4c-1.6.2-3 .8-4.4 1.1-1.1-1.9-1.5-4.5-2-7l-.2.4c-.4 2.4-.4 4.7 0 7.1-1.1.3-2.1.4-3.1.8l-.2.4 4.3 2.4c.9 1.9 1.8 3.2 3.3 4.6l.2-.4c-.3-1.1-.6-2-.5-3.2 1.8.6 3.4.9 5.5.9z"></path>
            <path d="M23.4 17.3s-.7 1.3-1.3 3.1H22c4.3.6 8.4 2.3 9.4 2.9l-.2.4c-4.5-.8-6.8-.7-8.5-.5s-2 .4-2 .4c-1 2.1-1.5 5.5-1.8 6.8l-.2.4c-.8-2-2-5.9-2-5.9-2.3 1.2-7.5 6.1-7.5 6.1 2.9-5.7 5.8-8.3 5.8-8.3-1-1-3.6-1.5-5.5-1.6l.2-.4c1.2-.4 3.7-.5 5.3-.6 2-.1 3.1.1 3.1.1 1.8-1.5 4.4-2.7 5.3-2.9z"></path>
            <path d="M28.9 42l-2.7 3.3c-1.5.4-3.2.2-4.6.3l-.2.4c1 .5 2 .9 3.1 1.1-.9.8-2 1.4-2.9 1.9l-.2.4c1.8-.4 4.1-1.2 5.8-2.2l2.3-.1.2-.4c-.1-.4-.5-.6-.6-1.2 1.6-1.3 2.8-2.4 4.1-3.7l.2-.4c-1.3.9-2.9 2.2-4.5 2.9V42z"></path>
        </g>
    </g>
    <path fill="white" d="M43.8 14.8c-3.5 2-4.5 2.2-8.3 4.5 2.2-2.4 3-3.4 4.3-5.4-3.5.2-8.5.6-12.1 1.4 3.1-1.7 9.4-3.5 12.6-4-.8-1.1-6.9-4.4-8.5-5 4.9.4 10.8 2.2 13.7 4 1.1-.4 2.3-.4 4.4-.6-.5.9-.6 1.5-2.6 2.8.6 1.5-.8 10-1.9 12.2 0-3.5-.3-8-1.6-9.9zM18.4 45.1c-2-.7-3.4-1.6-5-3.1.5-1.3 1-2.3 1.9-3.6l-4.2.7c-1.1-2-1.6-3.9-2.2-6.6-.4 2.4-.4 4.7 0 7.1l-3.2 1.1 4.3 2.4c.9 1.9 1.8 3.2 3.3 4.6-.3-1.2-.4-2.2-.3-3.5 1.8.6 3.3.9 5.4.9zM23.6 17a14 14 0 0 0-1.5 3c5.1.7 9.2 3.3 9.2 3.3-4.5-.8-6.8-.7-8.5-.5s-2 .4-2 .4c-1.2 2.7-1.9 7.2-1.9 7.2-.8-2-2-5.9-2-5.9-2.3 1.2-7.5 6.1-7.5 6.1 2.9-5.7 5.8-8.3 5.8-8.3-1-1-3.6-1.5-5.5-1.6 2.8-.9 5.8-1.2 8.7-.9 1.6-1.5 4.3-2.7 5.2-2.8zm5.5 24.6l-2.7 3.3a16 16 0 0 1-4.8.7c1 .5 2 .9 3.1 1.1-1.1 1-2 1.7-3 2.3 1.8-.4 4.1-1.2 5.8-2.2l2.4-.1-.4-1.6c1.6-1.3 2.8-2.4 4.1-3.7-1.4 1-2.7 1.7-4.3 2.5-.2-.8-.2-1.5-.2-2.3z"></path>
    <path fill="#2D2926" d="M70.3 18.5l.2 9.1c0 1.7 0 7.5-.3 10v.2h9.1c4.5 0 9.2-1.4 9.2-5.3 0-2.5-1.8-4.3-5.1-5.3 2.5-.7 4.1-2.4 4.1-4.3 0-3.2-3.7-4.4-7.2-4.5l-10 .1c0-.1 0 0 0 0zm7 2c3.8 0 5.2.8 5.2 2.9 0 .6-.2 1.1-.5 1.5-.7.9-2.1 1.3-3.9 1.2H78l-1.1 2.8H78c2.1-.1 3.9.6 4.8 1.7.4.5.6 1.1.6 1.8 0 2.1-1.9 3.3-5.6 3.3h-2.3V20.8c.4-.2 1.1-.3 1.8-.3zm32-2.1h-4.4l.2 4.9.3 7.4c-.3-.8-.6-1.2-1.9-3.1 0-.1-4.6-7.1-6.2-9.1h-5.1v.2c.2 2 .2 7.2.2 9.1 0 1.7 0 7.5-.2 10v.2h4.6v-.2c-.3-4.8-.3-9.6-.3-14.2.2.6.4 1 1.1 2.1l8.3 12.2v.1h3.7v-.2c-.3-2.5-.3-8.3-.3-10l.2-9.1.1-.2h-.3v-.1zm5.3.1c.2 2 .2 7.2.2 9.1 0 1.7 0 7.5-.3 10v.2h5.4v-.2c-.2-1.8-.3-5.2-.3-7.9l1 .1h.8c7.1 0 10.6-1.9 10.6-5.9 0-4.5-4.9-5.6-8.9-5.6h-8.6v.2h.1zm6.7 2.2c2.5 0 4.3.5 5.2 1.5.4.5.6 1.1.6 1.8 0 2.8-3.2 3.4-5.8 3.4l-1.1-.1h-.4v-2.5l.1-4 1.4-.1zm21.2-2.2c.2 2 .3 7.2.3 9.1 0 1.7 0 7.5-.3 10v.2h5.4v-.2c-.2-1.8-.3-5.2-.3-7.9l1 .1h.8c7.1 0 10.6-1.9 10.6-5.9 0-4.5-4.9-5.6-9-5.6h-8.5v.2zm6.6 2.2c2.5 0 4.3.5 5.2 1.5.4.5.6 1.1.6 1.8 0 2.8-3.2 3.4-5.8 3.4l-1.1-.1h-.4v-2.5l.1-4 1.4-.1zm18.1-2.3l-.1.1c-1 2.8-7.5 17-8.5 19.2l-.1.2h4.6v-.1l1.5-4.5 3.9-.1h3.9l1.7 4.5.1.1h5.4l-8.7-19.5-3.7.1zm1.3 5.7l2.8 6.6h-5.7l2.9-6.6zm13.2-5.6c.2 2 .2 7.2.2 9.1 0 1.7 0 7.5-.3 10v.2h5.5v-.2c-.3-2.5-.3-8.3-.3-10 0-1.4 0-4.4.2-6.8l1.5-.1c2.5 0 4.3.5 5.1 1.5.4.5.6 1.1.6 1.8 0 2.3-2.1 3.4-4.1 3.5l-1.1-.1-.4-.1.2.4c1.9 2.8 4.8 7.7 6 10v.1h5.8l-.1-.3-5.6-8.3-.1-.1c3-.9 4.4-2.6 4.4-5.1 0-4.5-4.9-5.6-9-5.6l-8.5.1zm26.7-.1h-5.2v.2l.2 9.1c0 1.7 0 7.5-.3 10v.2h5.4v-.2c-.3-6.4-.3-12.7 0-19.1l-.1-.2zm5.1.1c.2 2 .3 7.2.3 9.1 0 1.7 0 7.5-.3 10v.2h9.1c4.4 0 9.2-1.4 9.2-5.3 0-2.5-1.8-4.3-5.2-5.3 2.5-.7 4.2-2.4 4.2-4.3 0-3.2-3.7-4.4-7.2-4.5h-10l-.1.1zm7 2c3.8 0 5.2.8 5.2 2.9 0 .6-.2 1.1-.5 1.5-.7.9-2.2 1.3-3.9 1.2h-.1l-1 2.8h1c2.1-.1 3.9.6 4.8 1.7.5.5.7 1.1.7 1.8 0 2.1-1.9 3.3-5.7 3.3h-2.3c-.2-2.9-.2-6.8-.2-7.9l.2-7c.4-.2 1.1-.3 1.8-.3zm24.5-2.1h-3.6v.1c-1.1 3-8 17.9-8.5 19.1l-.1.3h4.6v-.1l1.5-4.5 3.8-.1h3.9l1.7 4.5.1.1h5.4l-8.6-19.5-.2.1zm-2.3 5.7l2.8 6.6h-2.8l-2.9-.1 2.9-6.5zm12.6-.7c0 3.4 3.4 4.8 6.5 6.1 2.4.9 4.8 1.9 4.8 3.6 0 .5-.1.9-.4 1.2-.6.7-1.7 1-3.5.9s-3.9-.6-6.2-1.7l-.9-.4v4.3l.6.2.4.1c1.1.3 3.3.8 5.5.8 5.7 0 9.1-2.3 9.1-6.1 0-3.5-3.5-4.9-6.6-6.2-2.3-.9-4.7-1.9-4.7-3.4 0-.4 0-1.7 3-1.7 2.2 0 4.3.9 5.5 1.4l1.1.5v-4.2l-1.1-.2c-1.1-.2-3-.6-4.9-.6-4.9-.3-8.2 2-8.2 5.4z"></path>
</svg>